<svg width="120" height="120" viewBox="0 0 120 120" xmlns="http://www.w3.org/2000/svg"><title>icon-instagram-2</title><path d="M12 0h96c6.627 0 12 5.373 12 12v96c0 6.627-5.373 12-12 12H12c-6.627 0-12-5.373-12-12V12C0 5.373 5.373 0 12 0zm86.766 76.077a28.563 28.563 0 0 1-1.815 9.468 19.923 19.923 0 0 1-11.4 11.4 28.638 28.638 0 0 1-9.465 1.8c-4.161.189-5.49.234-16.08.234-10.59 0-11.919-.045-16.08-.234a28.641 28.641 0 0 1-9.468-1.8 19.944 19.944 0 0 1-11.4-11.4 28.65 28.65 0 0 1-1.8-9.468C21.045 71.919 21 70.59 21 60c0-10.59.045-11.922.234-16.08a28.65 28.65 0 0 1 1.8-9.468 19.968 19.968 0 0 1 11.4-11.4 28.65 28.65 0 0 1 9.468-1.8c4.161-.189 5.487-.234 16.08-.234 10.593 0 11.919.045 16.08.234a28.64 28.64 0 0 1 9.465 1.8 19.944 19.944 0 0 1 11.4 11.4 28.563 28.563 0 0 1 1.815 9.468c.189 4.158.234 5.487.234 16.08 0 10.593-.021 11.919-.21 16.077zM60 39.972A20.028 20.028 0 1 0 80.025 60c0-11.06-8.965-20.026-20.025-20.028zM80.817 34.5a4.68 4.68 0 1 0 0 9.36 4.68 4.68 0 0 0 0-9.36zM60 72.999A13.002 13.002 0 1 1 72.999 60c-.002 7.178-5.82 12.997-12.999 12.999z" fill="#0E0F0D" fill-rule="evenodd"/></svg>