<svg width="120" height="120" viewBox="0 0 120 120" xmlns="http://www.w3.org/2000/svg"><title>icon-smilebubble</title><g fill="none" fill-rule="evenodd"><rect fill="#BFBFBF" width="120" height="120" rx="12"/><path d="M24 26h72v72H24z"/><path d="M83.994 32h-48a6 6 0 0 0-6 6v36c0 3.312 2.688 6 6 6h3v12l12-12h33a6 6 0 0 0 6-6V38c0-3.315-2.685-6-6-6zm-15 11.25c2.067 0 3.75 1.68 3.75 3.75 0 2.07-1.68 3.75-3.75 3.75a3.753 3.753 0 0 1-3.75-3.75c0-2.07 1.683-3.75 3.75-3.75zm-18 0c2.067 0 3.75 1.68 3.75 3.75 0 2.07-1.683 3.75-3.75 3.75a3.753 3.753 0 0 1-3.75-3.75c0-2.07 1.683-3.75 3.75-3.75zm9 24.75c-6.15 0-11.418-3.708-13.734-9h27.468c-2.316 5.292-7.584 9-13.734 9z" fill="#FFF" fill-rule="nonzero"/></g></svg>
