<svg width="120" height="120" viewBox="0 0 120 120" xmlns="http://www.w3.org/2000/svg"><title>icon-odnoklassniki-2</title><path d="M12 0h96c6.627 0 12 5.373 12 12v96c0 6.627-5.373 12-12 12H12c-6.627 0-12-5.373-12-12V12C0 5.373 5.373 0 12 0zm48 30.705a8.976 8.976 0 1 1-8.856 8.976A8.925 8.925 0 0 1 60 30.705zm0 30.648a21.678 21.678 0 1 0-21.387-21.672C38.546 51.566 48.115 61.262 60 61.353zm8.652 17.685a39.723 39.723 0 0 0 12.42-5.214 6.399 6.399 0 0 0 1.965-8.757 6.213 6.213 0 0 0-8.64-1.998 26.844 26.844 0 0 1-28.8 0 6.207 6.207 0 0 0-8.637 1.998 6.399 6.399 0 0 0 1.962 8.757 39.792 39.792 0 0 0 12.42 5.214l-11.958 12.12a6.414 6.414 0 0 0 0 8.982 6.207 6.207 0 0 0 8.862 0L60 88.23l11.754 11.91a6.207 6.207 0 0 0 8.859 0 6.411 6.411 0 0 0 0-8.982l-11.958-12.12h-.003z" fill="#F58220" fill-rule="evenodd"/></svg>
