<svg width="120" height="120" viewBox="0 0 120 120" xmlns="http://www.w3.org/2000/svg"><title>icon-vkontakte-en-2</title><path d="M12 0h96c6.627 0 12 5.373 12 12v96c0 6.627-5.373 12-12 12H12c-6.627 0-12-5.373-12-12V12C0 5.373 5.373 0 12 0zm83.583 79.644a5.931 5.931 0 0 0-.264-.51 40.89 40.89 0 0 0-7.758-9.081l-.081-.081-.039-.042-.042-.039h-.042c-1.73-1.674-2.83-2.798-3.3-3.372a3.192 3.192 0 0 1-.57-3.327 31.2 31.2 0 0 1 3.657-5.382c1.11-1.45 1.989-2.613 2.637-3.489 4.686-6.3 6.717-10.326 6.093-12.078l-.243-.411a2.379 2.379 0 0 0-1.257-.678 6.333 6.333 0 0 0-2.601-.102l-11.7.081a1.536 1.536 0 0 0-.813.021l-.528.126-.204.102-.159.123a1.728 1.728 0 0 0-.447.432c-.17.218-.306.46-.405.717A67.362 67.362 0 0 1 73.2 51.9c-1 1.698-1.92 3.17-2.76 4.416a21.186 21.186 0 0 1-2.1 2.751 15 15 0 0 1-1.542 1.419c-.276.287-.657.45-1.056.45a27.45 27.45 0 0 1-.693-.162 2.745 2.745 0 0 1-.9-1.008 4.5 4.5 0 0 1-.468-1.602 17.29 17.29 0 0 1-.141-1.662c-.012-.462 0-1.125.021-1.974s.039-1.422.039-1.725c0-1.042.021-2.171.063-3.387l.099-2.898c.03-.711.042-1.464.042-2.259a9.732 9.732 0 0 0-.141-1.869 6.528 6.528 0 0 0-.426-1.314 2.214 2.214 0 0 0-.834-.987 4.704 4.704 0 0 0-1.359-.555A27.027 27.027 0 0 0 55.56 39a26.4 26.4 0 0 0-9.705.987 5.439 5.439 0 0 0-1.542 1.233c-.486.6-.554.928-.204.984a4.956 4.956 0 0 1 3.453 1.767l.243.492a8.1 8.1 0 0 1 .57 1.89c.199.99.32 1.992.363 3a32.349 32.349 0 0 1 0 5.133 64.98 64.98 0 0 1-.384 3.33 6.762 6.762 0 0 1-.549 1.929c-.142.31-.305.612-.489.9a.687.687 0 0 1-.201.207c-.35.135-.723.205-1.098.204a2.577 2.577 0 0 1-1.38-.573 9.828 9.828 0 0 1-1.686-1.584 21.021 21.021 0 0 1-1.968-2.814c-.728-1.2-1.486-2.624-2.274-4.272l-.648-1.2a126.7 126.7 0 0 1-1.665-3.348 60.776 60.776 0 0 1-1.869-4.251 2.682 2.682 0 0 0-.975-1.314l-.201-.123a2.877 2.877 0 0 0-.651-.351 4.443 4.443 0 0 0-.933-.267l-11.127.084a2.808 2.808 0 0 0-2.316.78l-.162.246a1.353 1.353 0 0 0-.12.657c.017.381.099.757.243 1.11a135.32 135.32 0 0 0 5.298 11.172c1.91 3.588 3.568 6.477 4.974 8.667 1.4 2.2 2.835 4.268 4.305 6.204 1.47 1.936 2.438 3.182 2.904 3.738.471.549.846.96 1.116 1.233l1.014.984c.893.86 1.85 1.65 2.862 2.364a48.9 48.9 0 0 0 4.185 2.7c1.68.95 3.474 1.681 5.34 2.175 1.925.55 3.928.78 5.928.678h4.668a3.216 3.216 0 0 0 2.154-.9l.162-.207a2.7 2.7 0 0 0 .3-.759c.098-.368.146-.747.141-1.128a13.8 13.8 0 0 1 .264-3.183c.135-.74.368-1.458.693-2.136.232-.439.525-.843.87-1.2a3.6 3.6 0 0 1 .693-.6 3 3 0 0 1 .324-.144 2.553 2.553 0 0 1 2.295.639 13.566 13.566 0 0 1 2.478 2.382 72.209 72.209 0 0 0 2.781 3.183 19.02 19.02 0 0 0 2.841 2.628l.813.495a9.9 9.9 0 0 0 2.1.9c.728.262 1.51.333 2.274.207l10.395-.165a4.686 4.686 0 0 0 2.4-.513 2.034 2.034 0 0 0 1.017-1.131c.109-.459.116-.936.021-1.398a5.34 5.34 0 0 0-.312-1.077z" fill="#45668E" fill-rule="evenodd"/></svg>
