<svg width="120" height="120" viewBox="0 0 120 120" xmlns="http://www.w3.org/2000/svg"><title>icon-twitter-2</title><path d="M12 0h96c6.627 0 12 5.373 12 12v96c0 6.627-5.373 12-12 12H12c-6.627 0-12-5.373-12-12V12C0 5.373 5.373 0 12 0zm84.93 31.164a30.357 30.357 0 0 1-9.774 3.861A15.12 15.12 0 0 0 75.927 30c-8.638.146-15.525 7.262-15.39 15.9 0 1.218.133 2.432.399 3.621a43.218 43.218 0 0 1-31.713-16.62 16.236 16.236 0 0 0-2.079 7.995 16.038 16.038 0 0 0 6.843 13.239 15 15 0 0 1-6.969-1.995v.198a15.801 15.801 0 0 0 12.339 15.6c-1.32.37-2.683.558-4.053.558a14.874 14.874 0 0 1-2.895-.3 15.486 15.486 0 0 0 14.367 11.052 30.237 30.237 0 0 1-19.107 6.804A31.5 31.5 0 0 1 24 85.836 42.555 42.555 0 0 0 47.586 93c28.299 0 43.776-24.24 43.776-45.264l-.051-2.061A31.536 31.536 0 0 0 99 37.452a29.922 29.922 0 0 1-8.835 2.508 15.915 15.915 0 0 0 6.765-8.796z" fill="#55ACEE" fill-rule="evenodd"/></svg>
